<?xml version="1.0" encoding="UTF-8" standalone="no"?>
<svg
   id="svg903"
   version="1.1"
   viewBox="-60 -60 120.05001 120.05001"
   height="120.05001mm"
   width="120.05001mm"
   xmlns="http://www.w3.org/2000/svg"
   xmlns:svg="http://www.w3.org/2000/svg"
   xmlns:rdf="http://www.w3.org/1999/02/22-rdf-syntax-ns#"
   xmlns:cc="http://creativecommons.org/ns#"
   xmlns:dc="http://purl.org/dc/elements/1.1/">
  <defs
     id="defs905" />
  <metadata
     id="metadata2822">
    <rdf:RDF>
      <cc:Work
         rdf:about="">
        <dc:format>image/svg+xml</dc:format>
        <dc:type
           rdf:resource="http://purl.org/dc/dcmitype/StillImage" />
      </cc:Work>
    </rdf:RDF>
  </metadata>
  <g
     style="fill:none;stroke:#000000;stroke-width:0.05"
     id="Template"
     transform="translate(0.02500153,0.02499771)">
    <rect
       y="-60.024998"
       x="-60.025002"
       height="120.05"
       width="120.05"
       id="rect1468"
       style="fill:#000000;stroke:none;stroke-width:4.00001;stroke-linejoin:round;stroke-miterlimit:4;stroke-dasharray:none" />
    <g
       style="stroke-width:0.0379769"
       transform="matrix(3.0533466,0,0,3.0420727,-224.84003,-530.71062)"
       id="g911">
      <g
         id="g871"
         style="fill:#000000;stroke-width:0.0379769">
        <path
           id="path826"
           transform="matrix(0.26458333,0,0,0.26458333,-3.0238125,88.905205)"
           d="m 277.91797,276.24023 c -25.85678,0 -27.9043,27.96875 -27.9043,27.96875 l 0.125,64.33399 h 12.87891 v -35.85938 l 4.79883,4.67188 21.59179,-7.95508 c 0,0 16.22657,-6.51342 16.22657,-23.99219 0,-12.86029 -9.42695,-29.16797 -27.7168,-29.16797 z m -0.56836,13.00586 c 9.93641,0 14.96289,8.2458 14.96289,15.4043 0,10.14406 -8.52344,13.44727 -8.52344,13.44727 l -20.64453,8.14453 v -23.92774 c 0,0 1.57824,-13.06836 14.20508,-13.06836 z"
           style="opacity:1;fill:#ffffff;stroke:none;stroke-width:0.759537px;stroke-linecap:butt;stroke-linejoin:miter;stroke-opacity:1" />
      </g>
      <g
         style="stroke-width:0.0379769"
         id="g894" />
    </g>
    <g
       style="stroke-width:0.0456113"
       transform="matrix(2.5243678,0,0,2.5508592,-415.29938,-427.85625)"
       id="g911-7">
      <g
         id="g871-9"
         style="fill:#000000;stroke-width:0.0456113" />
      <g
         style="stroke-width:0.0456113"
         id="g894-8">
        <path
           id="path873"
           d="m 177.42403,153.3513 a 2.1931794,2.2100067 0 0 1 -2.19318,2.21001 2.1931794,2.2100067 0 0 1 -2.19318,-2.21001 2.1931794,2.2100067 0 0 1 2.19318,-2.21 2.1931794,2.2100067 0 0 1 2.19318,2.21 z"
           style="opacity:1;fill:#f9ce02;fill-opacity:1;stroke:none;stroke-width:1.03064;stroke-miterlimit:4;stroke-dasharray:none;stroke-opacity:1" />
        <path
           style="opacity:1;fill:#f4761e;fill-opacity:1;stroke:none;stroke-width:1.03064;stroke-miterlimit:4;stroke-dasharray:none;stroke-opacity:1"
           d="m 177.42403,159.11544 a 2.1931794,2.2100067 0 0 1 -2.19318,2.21001 2.1931794,2.2100067 0 0 1 -2.19318,-2.21001 2.1931794,2.2100067 0 0 1 2.19318,-2.21 2.1931794,2.2100067 0 0 1 2.19318,2.21 z"
           id="path878" />
        <path
           id="path880"
           d="m 177.42403,164.83233 a 2.1931794,2.2100067 0 0 1 -2.19318,2.21001 2.1931794,2.2100067 0 0 1 -2.19318,-2.21001 2.1931794,2.2100067 0 0 1 2.19318,-2.21 2.1931794,2.2100067 0 0 1 2.19318,2.21 z"
           style="opacity:1;fill:#ef1b41;fill-opacity:1;stroke:none;stroke-width:1.03064;stroke-miterlimit:4;stroke-dasharray:none;stroke-opacity:1" />
        <path
           style="opacity:1;fill:#675fcd;fill-opacity:1;stroke:none;stroke-width:1.03064;stroke-miterlimit:4;stroke-dasharray:none;stroke-opacity:1"
           d="m 177.42403,170.73821 a 2.1931794,2.2100067 0 0 1 -2.19318,2.21001 2.1931794,2.2100067 0 0 1 -2.19318,-2.21001 2.1931794,2.2100067 0 0 1 2.19318,-2.21 2.1931794,2.2100067 0 0 1 2.19318,2.21 z"
           id="path882" />
        <path
           id="path884"
           d="m 177.42403,176.4551 a 2.1931794,2.2100067 0 0 1 -2.19318,2.21001 2.1931794,2.2100067 0 0 1 -2.19318,-2.21001 2.1931794,2.2100067 0 0 1 2.19318,-2.21 2.1931794,2.2100067 0 0 1 2.19318,2.21 z"
           style="opacity:1;fill:#049fd8;fill-opacity:1;stroke:none;stroke-width:1.03064;stroke-miterlimit:4;stroke-dasharray:none;stroke-opacity:1" />
        <path
           style="opacity:1;fill:#0cab44;fill-opacity:1;stroke:none;stroke-width:1.03064;stroke-miterlimit:4;stroke-dasharray:none;stroke-opacity:1"
           d="m 177.42403,182.17199 a 2.1931794,2.2100067 0 0 1 -2.19318,2.21001 2.1931794,2.2100067 0 0 1 -2.19318,-2.21001 2.1931794,2.2100067 0 0 1 2.19318,-2.21 2.1931794,2.2100067 0 0 1 2.19318,2.21 z"
           id="path886" />
      </g>
    </g>
  </g>
</svg>
